<!DOCTYPE svg PUBLIC "-//W3C//DTD SVG 1.1//EN" "http://www.w3.org/Graphics/SVG/1.1/DTD/svg11.dtd">

<!-- Uploaded to: SVG Repo, www.svgrepo.com, Transformed by: SVG Repo Mixer Tools -->
<svg fill="#ffffff" version="1.1" id="Layer_1" xmlns="http://www.w3.org/2000/svg" xmlns:xlink="http://www.w3.org/1999/xlink" width="800px" height="800px" viewBox="0 0 256 229" enable-background="new 0 0 256 229" xml:space="preserve">

<g id="SVGRepo_bgCarrier" stroke-width="0"/>

<g id="SVGRepo_tracerCarrier" stroke-linecap="round" stroke-linejoin="round"/>

<g id="SVGRepo_iconCarrier"> <path d="M129.593,64.314c23.543-30.833,44.788-45.063,54.751-45.063c1.37,0,2.507,0.258,3.386,0.775 c5.324,3.076,6.332,16.619,2.766,34.505c5.686,1.086,11.14,2.326,16.335,3.722c5.583-26.958,1.861-45.619-10.649-52.856 c-12.716-7.34-30.498-1.318-51.434,17.42c-12.018,10.754-24.622,25.416-36.339,42.062c-11.687,0.676-23.237,1.953-34.188,3.813 c-7.913-26.6-7.343-44.886-0.783-48.667c0.879-0.517,2.016-0.775,3.386-0.775c7.289,0,19.255,7.237,32.023,19.385 c3.618-4.471,7.263-8.736,10.907-12.742C97.657,5.036,78.246-2.253,65.013,5.397C52.297,12.712,48.626,31.114,54.39,58.64 c0.901,4.301,2.036,8.788,3.376,13.409C25.626,79.809,2,93.278,2,111.935c0,15.378,16.231,28.637,45.696,37.322l1.241,0.362 l0.362-1.215c1.344-4.42,2.869-8.917,4.523-13.388l0.465-1.292l-1.318-0.388c-20.392-5.97-34.065-14.577-34.065-21.4 c0-7.721,16.139-17.594,44.084-24.042c3.821,10.43,8.516,21.254,13.893,32.034c-8.08,17.761-14.137,35.252-17.321,50.473 c-5.764,27.5-2.094,45.903,10.623,53.217c3.463,2.016,7.366,3.024,11.605,3.024c10.571,0,23.468-6.384,37.606-18.532 c-3.851-3.929-7.625-8.064-11.295-12.38c-10.519,8.891-19.979,14.06-26.105,14.06c-1.344,0-2.481-0.259-3.386-0.776 c-8.213-4.751-7.064-32.19,8.403-70.244c24.572,42.417,63.859,87.871,92.371,87.871c4.239,0,8.141-1.008,11.605-3.024h0.026 c26.285-15.146,10.054-73.998-16.516-123.493c-6.306-1.008-13.207-1.835-20.729-2.43l0.853,1.447 c33.316,57.689,38.795,103.592,27.94,109.872c-0.905,0.517-2.042,0.776-3.386,0.776c-13.13,0-45.98-24.787-77.797-79.891 c-2.015-3.492-3.924-6.939-5.738-10.338c3.243-6.601,6.866-13.421,10.907-20.419c3.659-6.338,7.331-12.256,10.986-17.8 c3.423-0.101,6.903-0.163,10.466-0.163c66.606,0,109.122,18.222,109.122,30.757c0,6.436-12.199,14.448-30.731,20.367 c2.042,5.324,3.903,10.623,5.531,15.843c27.164-8.684,42.078-21.452,42.078-36.21C254,81.266,190.199,64.601,129.593,64.314z M91.919,90.689c-1.915,3.32-3.771,6.67-5.566,10.036c-2.506-5.53-4.744-10.887-6.695-16.017c5.395-0.837,11.099-1.547,17.094-2.107 C95.11,85.272,93.492,87.964,91.919,90.689z M111.783,114.85c0,10.231,8.324,18.555,18.555,18.555 c10.231,0,18.555-8.324,18.555-18.555s-8.324-18.555-18.555-18.555C120.107,96.294,111.783,104.618,111.783,114.85z"/> </g>

</svg>